<?xml version="1.0" encoding="UTF-8" standalone="no" ?>
<!DOCTYPE svg PUBLIC "-//W3C//DTD SVG 1.1//EN" "http://www.w3.org/Graphics/SVG/1.1/DTD/svg11.dtd">
<svg xmlns="http://www.w3.org/2000/svg" xmlns:xlink="http://www.w3.org/1999/xlink" version="1.1" width="100" height="100" viewBox="0 0 640 480" xml:space="preserve">
<desc>Created with Fabric.js 3.6.3</desc>
<defs>
</defs>
<g transform="matrix(9.82 0 0 9.82 322.09 239.78)" id="SvgjsG1023"  >
<path style="stroke: none; stroke-width: 1; stroke-dasharray: none; stroke-linecap: butt; stroke-dashoffset: 0; stroke-linejoin: miter; stroke-miterlimit: 4; fill: rgb(218,220,223); fill-rule: nonzero; opacity: 1;"  transform=" translate(-24, -24)" d="M 13 12.7 h -3 V 5 q 0 -1.2 0.9 -2.1 q 0.9 -0.9 2.1 -0.9 h 22 q 1.2 0 2.1 0.9 q 0.9 0.9 0.9 2.1 v 7.7 h -3 V 9.5 H 13 Z m -3 22 h 3 v 3.8 h 22 v -3.8 h 3 V 43 q 0 1.2 -0.9 2.1 q -0.9 0.9 -2.1 0.9 H 13 q -1.2 0 -2.1 -0.9 q -0.9 -0.9 -0.9 -2.1 Z m 20.8 -1.5 L 28.7 31 l 7 -7 l -7 -7 l 2.1 -2.2 L 40 24 Z m -13.6 0 L 8 24 l 9.2 -9.2 l 2.1 2.2 l -7 7 l 7 7 Z M 13 41.5 V 43 h 22 v -1.5 Z m 0 1.5 v -1.5 V 43 Z m 0 -36.5 h 22 V 5 H 13 Z M 13 5 v 1.5 V 5 Z" stroke-linecap="round" />
</g>
</svg>