<?xml version="1.0" encoding="UTF-8" standalone="no" ?>
<!DOCTYPE svg PUBLIC "-//W3C//DTD SVG 1.1//EN" "http://www.w3.org/Graphics/SVG/1.1/DTD/svg11.dtd">
<svg xmlns="http://www.w3.org/2000/svg" xmlns:xlink="http://www.w3.org/1999/xlink" version="1.1" width="150" height="150" viewBox="0 0 640 480" xml:space="preserve">
<desc>Created with Fabric.js 3.6.3</desc>
<defs>
</defs>
<g transform="matrix(10.87 0 0 10.87 319.87 244.38)"  >
<path style="stroke: none; stroke-width: 1; stroke-dasharray: none; stroke-linecap: butt; stroke-dashoffset: 0; stroke-linejoin: miter; stroke-miterlimit: 4; fill: rgb(235,186,81); fill-rule: nonzero; opacity: 1;"  transform=" translate(-24, -24)" d="M 7 40 q -1.2 0 -2.1 -0.9 Q 4 38.2 4 37 V 11 q 0 -1.2 0.9 -2.1 Q 5.8 8 7 8 h 34 q 1.2 0 2.1 0.9 q 0.9 0.9 0.9 2.1 v 26 q 0 1.2 -0.9 2.1 q -0.9 0.9 -2.1 0.9 Z m 0 -3 h 23.05 v -8.15 H 7 V 37 Z m 26.05 0 H 41 V 17.7 h -7.95 Z M 7 25.85 h 23.05 V 17.7 H 7 Z" stroke-linecap="round" />
</g>
</svg>