<?xml version="1.0" encoding="UTF-8" standalone="no" ?>
<!DOCTYPE svg PUBLIC "-//W3C//DTD SVG 1.1//EN" "http://www.w3.org/Graphics/SVG/1.1/DTD/svg11.dtd">
<svg xmlns="http://www.w3.org/2000/svg" xmlns:xlink="http://www.w3.org/1999/xlink" version="1.1" width="100" height="100" viewBox="0 0 640 480" xml:space="preserve">
<desc>Created with Fabric.js 3.6.3</desc>
<defs>
</defs>
<g transform="matrix(1.68 0 0 1.68 317.91 237.06)"  >
<g style=""   >
		<g transform="matrix(0.03 0 0 -0.03 -3.73 -5.45)"  >
<path style="stroke: none; stroke-width: 1; stroke-dasharray: none; stroke-linecap: butt; stroke-dashoffset: 0; stroke-linejoin: miter; stroke-miterlimit: 4; fill: rgb(218,220,223); fill-rule: nonzero; opacity: 1;"  transform=" translate(-4679.65, -472.7)" d="M 401.2 4575.6 c -122.8 -61.4 -211 -151.5 -268.5 -280.1 c -30.7 -69 -32.6 -303.1 -32.6 -3803.7 c 0 -3623.4 1.9 -3732.7 36.4 -3824.8 c 48 -126.6 161.1 -245.5 285.8 -301.1 l 99.7 -46 l 3065.2 -5.8 l 3065.2 -3.8 l -15.4 42.2 c -30.7 86.3 -17.2 291.6 24.9 360.6 l 38.4 67.1 l -53.7 44.1 c -28.8 24.9 -67.1 69.1 -86.3 101.7 l -32.6 55.6 h -2883 h -2883 v 2848.5 v 2848.5 l 3918.8 -3.8 l 3916.9 -5.8 l 9.6 -1860.6 l 9.6 -1858.7 l 74.8 -17.2 c 72.9 -17.3 245.5 -163 264.7 -222.5 c 5.7 -23 19.2 -23 72.9 -5.8 c 34.5 13.4 101.7 23 147.7 23 h 82.5 l -3.8 2758.3 l -5.8 2756.4 l -59.5 105.5 c -65.2 117 -201.4 232.1 -314.6 266.6 c -51.8 15.4 -1191.2 21.1 -4214.2 21.1 H 518.2 L 401.2 4575.6 z M 6581.5 3898.5 c 107.4 -44.1 126.6 -92.1 126.6 -301.2 c 0 -155.4 -5.7 -191.8 -38.4 -234 c -55.6 -69.1 -153.5 -95.9 -310.7 -86.3 c -118.9 9.6 -141.9 17.3 -195.7 71 c -57.5 59.5 -59.5 63.3 -59.5 239.8 c 0 201.4 21.1 262.8 113.2 306.9 C 6291.8 3933 6497.1 3934.9 6581.5 3898.5 z M 7592.3 3856.3 c 51.8 -51.8 59.5 -74.8 69.1 -201.4 c 17.2 -262.8 -53.7 -364.4 -270.5 -377.9 c -145.8 -9.6 -245.5 19.2 -299.2 86.3 c -32.6 42.2 -38.4 78.6 -38.4 237.8 c 0 172.6 3.8 191.8 47.9 245.5 c 59.5 69.1 90.2 76.7 282 72.9 C 7521.4 3915.7 7536.7 3911.9 7592.3 3856.3 z M 8482.4 3898.5 c 92.1 -38.4 124.7 -115.1 124.7 -285.8 c 0 -251.3 -51.8 -318.4 -257 -333.8 c -272.4 -23 -356.8 53.7 -356.8 316.5 c 0 186.1 30.7 262.8 120.8 301.2 C 8194.6 3933 8399.9 3933 8482.4 3898.5 z" stroke-linecap="round" />
</g>
		<g transform="matrix(0.03 0 0 -0.03 30.69 41.73)"  >
<path style="stroke: none; stroke-width: 1; stroke-dasharray: none; stroke-linecap: butt; stroke-dashoffset: 0; stroke-linejoin: miter; stroke-miterlimit: 4; fill: rgb(218,220,223); fill-rule: nonzero; opacity: 1;"  transform=" translate(-5899.08, 1205.22)" d="M 5047 1970.7 c -44.1 -19.2 -95.9 -61.4 -117 -90.2 c -55.6 -80.6 -1022.4 -3094 -1022.4 -3186.1 c 0 -257 368.3 -372.1 516 -161.1 c 49.9 71 1024.3 3103.6 1024.3 3189.9 c 0 99.7 -59.5 189.9 -159.2 241.7 C 5187 2016.8 5148.6 2016.8 5047 1970.7 z M 3092.3 950.3 c -274.3 -126.6 -631.1 -291.6 -792.2 -366.4 c -226.3 -105.5 -306.9 -151.5 -343.4 -201.4 c -95.9 -126.6 -71 -322.2 51.8 -412.4 c 26.9 -19.2 391.3 -193.7 811.4 -389.4 C 3654.4 -806.8 3685 -816.4 3811.6 -730 c 74.8 49.9 134.3 153.4 134.3 232.1 c 0 30.7 -19.2 94 -40.3 140 c -38.4 80.6 -53.7 90.2 -331.8 224.4 c -159.2 76.7 -381.7 180.3 -494.9 232.1 c -115.1 51.8 -207.2 97.8 -207.2 105.5 c 1.9 5.7 197.6 99.7 437.3 209.1 c 239.8 109.3 464.2 216.8 498.7 237.9 c 71 42.2 138.1 157.3 138.1 237.9 c 0 88.2 -78.6 218.7 -153.5 259 C 3671.6 1211.1 3621.7 1197.7 3092.3 950.3 z M 5585.9 1161.3 c -193.7 -113.2 -232.1 -337.6 -80.6 -471.9 c 34.5 -28.8 266.6 -149.6 517.9 -264.7 c 249.4 -117 454.6 -216.7 454.6 -222.5 c 0 -5.8 -211 -107.4 -468 -226.3 C 5731.7 -152.7 5520.7 -262 5492 -292.7 c -174.6 -182.2 -44.1 -481.4 209.1 -481.4 c 49.9 0 283.9 99.7 840.2 356.8 c 423.9 197.6 792.2 376 815.2 399 c 142 126.6 130.4 362.5 -21.1 462.3 c -24.9 15.3 -381.7 186.1 -792.2 377.9 C 5781.6 1176.6 5676.1 1213.1 5585.9 1161.3 z M 8148.6 -1420.6 c -34.5 -28.8 -40.3 -59.5 -44.1 -203.3 l -5.7 -168.8 l -95.9 -34.6 c -51.8 -19.2 -109.3 -40.3 -126.6 -47.9 c -23 -9.6 -57.6 19.2 -132.4 107.4 c -128.5 155.4 -155.4 168.8 -235.9 111.3 c -147.7 -109.3 -282 -237.9 -282 -274.3 c 0 -19.2 42.2 -86.3 92.1 -145.8 c 51.8 -59.5 99.7 -117 105.5 -130.4 c 19.2 -30.7 -118.9 -255.1 -157.3 -255.1 c -17.2 1.9 -86.3 11.5 -155.4 24.9 c -143.9 28.8 -184.1 23 -201.4 -21.1 c -21.1 -55.6 -67.1 -316.5 -67.1 -383.6 c 0 -72.9 19.2 -84.4 226.3 -118.9 c 117 -19.2 140 -28.8 145.8 -63.3 c 3.8 -23 17.3 -84.4 26.8 -138.1 c 15.3 -71 13.4 -99.8 -1.9 -109.4 c -13.4 -7.7 -78.7 -46 -147.7 -86.3 c -163 -95.9 -166.9 -122.8 -38.4 -339.5 c 53.7 -92.1 111.3 -172.6 128.5 -178.4 c 30.7 -11.5 86.3 13.4 245.5 105.5 l 95.9 57.5 l 105.5 -94 l 103.6 -94 l -55.6 -163 c -44.1 -124.7 -51.8 -170.7 -36.4 -195.7 c 11.5 -17.2 107.4 -63.3 214.8 -101.7 c 151.5 -51.8 201.4 -63.3 228.3 -46 c 19.2 11.5 59.5 92.1 90.2 178.4 l 55.6 157.3 l 142 -5.8 l 143.8 -5.7 l 59.5 -163 c 49.9 -132.4 69.1 -165 103.6 -168.8 c 44.1 -5.8 358.7 99.7 404.7 136.2 c 34.5 26.9 28.8 84.4 -26.8 239.8 l -51.8 138.1 l 74.8 67.1 c 136.2 118.9 140 118.9 291.6 30.7 c 74.8 -44.1 147.7 -78.6 163 -78.6 c 38.4 0 72.9 44.1 178.4 226.3 c 107.4 189.9 107.4 189.9 -74.8 301.2 c -69.1 42.2 -130.4 82.5 -138.1 88.2 c -5.8 7.7 0 72.9 11.5 147.7 l 23 136.2 l 136.2 21.1 c 255.1 40.3 253.2 40.3 205.2 301.2 c -19.2 105.5 -40.3 201.4 -49.9 216.7 c -15.3 24.9 -140 19.2 -318.4 -11.5 c -69.1 -11.5 -69.1 -11.5 -136.2 109.3 l -67.1 122.8 l 101.7 124.7 c 57.5 69 103.6 142 103.6 166.9 c 0 30.7 -46.1 82.5 -157.3 178.4 c -88.2 72.9 -172.6 134.3 -191.8 134.3 c -23 0 -235.9 -218.7 -257 -264.7 c 0 -1.9 -63.3 19.2 -138.1 46 l -138.1 51.8 v 178.4 c 0 218.7 0 218.7 -255.1 218.7 C 8225.3 -1388 8181.2 -1395.7 8148.6 -1420.6 z M 8559.1 -2479.4 c 170.7 -76.7 276.2 -241.7 278.1 -429.7 c 0 -130.4 -30.7 -211 -115.1 -308.8 c -214.8 -243.6 -594.6 -205.2 -761.5 78.7 c -71 120.8 -74.8 316.5 -9.6 441.2 c 47.9 92.1 163 195.6 255.1 228.2 C 8304 -2433.4 8470.9 -2439.1 8559.1 -2479.4 z" stroke-linecap="round" />
</g>
</g>
</g>
</svg>